<mxfile host="Electron" modified="2024-05-08T09:07:00.328Z" agent="Mozilla/5.0 (X11; Linux x86_64) AppleWebKit/537.36 (KHTML, like Gecko) draw.io/24.2.5 Chrome/120.0.6099.109 Electron/28.1.0 Safari/537.36" etag="KzjLNlk3vyjHHTSAETQ7" version="24.2.5" type="device">
  <diagram name="第 1 页" id="IbcckCLenhUdAmr1r3zq">
    <mxGraphModel dx="1122" dy="780" grid="1" gridSize="10" guides="1" tooltips="1" connect="1" arrows="1" fold="1" page="1" pageScale="1" pageWidth="827" pageHeight="1169" math="0" shadow="0">
      <root>
        <mxCell id="0" />
        <mxCell id="1" parent="0" />
        <mxCell id="YWQ8t6BQs9RLZOX51MIL-1" value="" style="pointerEvents=1;verticalLabelPosition=bottom;shadow=0;dashed=0;align=center;html=1;verticalAlign=top;shape=mxgraph.electrical.signal_sources.source;aspect=fixed;points=[[0.5,0,0],[1,0.5,0],[0.5,1,0],[0,0.5,0]];elSignalType=dc2;elSourceType=dependent;" vertex="1" parent="1">
          <mxGeometry x="370" y="310" width="60" height="60" as="geometry" />
        </mxCell>
        <mxCell id="YWQ8t6BQs9RLZOX51MIL-2" value="" style="pointerEvents=1;verticalLabelPosition=bottom;shadow=0;dashed=0;align=center;html=1;verticalAlign=top;shape=mxgraph.electrical.signal_sources.source;aspect=fixed;points=[[0.5,0,0],[1,0.5,0],[0.5,1,0],[0,0.5,0]];elSignalType=dc2;elSourceType=dependent;" vertex="1" parent="1">
          <mxGeometry x="610" y="310" width="60" height="60" as="geometry" />
        </mxCell>
        <mxCell id="YWQ8t6BQs9RLZOX51MIL-3" value="" style="pointerEvents=1;verticalLabelPosition=bottom;shadow=0;dashed=0;align=center;html=1;verticalAlign=top;shape=mxgraph.electrical.resistors.resistor_2;rotation=90;" vertex="1" parent="1">
          <mxGeometry x="470" y="330" width="100" height="20" as="geometry" />
        </mxCell>
        <mxCell id="YWQ8t6BQs9RLZOX51MIL-4" value="" style="endArrow=none;html=1;strokeWidth=1;rounded=0;exitX=0.5;exitY=0;exitDx=0;exitDy=0;exitPerimeter=0;entryX=0.5;entryY=1;entryDx=0;entryDy=0;entryPerimeter=0;" edge="1" parent="1" target="YWQ8t6BQs9RLZOX51MIL-1">
          <mxGeometry width="100" relative="1" as="geometry">
            <mxPoint x="400" y="430" as="sourcePoint" />
            <mxPoint x="460" y="350" as="targetPoint" />
          </mxGeometry>
        </mxCell>
        <mxCell id="YWQ8t6BQs9RLZOX51MIL-5" value="" style="endArrow=none;html=1;strokeWidth=1;rounded=0;entryX=1;entryY=0.5;entryDx=0;entryDy=0;entryPerimeter=0;exitX=0.5;exitY=0;exitDx=0;exitDy=0;exitPerimeter=0;" edge="1" parent="1" target="YWQ8t6BQs9RLZOX51MIL-3">
          <mxGeometry width="100" relative="1" as="geometry">
            <mxPoint x="520" y="430" as="sourcePoint" />
            <mxPoint x="490" y="440" as="targetPoint" />
          </mxGeometry>
        </mxCell>
        <mxCell id="YWQ8t6BQs9RLZOX51MIL-6" value="" style="endArrow=none;html=1;strokeWidth=1;rounded=0;entryX=0.5;entryY=1;entryDx=0;entryDy=0;entryPerimeter=0;" edge="1" parent="1" target="YWQ8t6BQs9RLZOX51MIL-2">
          <mxGeometry width="100" relative="1" as="geometry">
            <mxPoint x="640" y="430" as="sourcePoint" />
            <mxPoint x="490" y="440" as="targetPoint" />
          </mxGeometry>
        </mxCell>
        <mxCell id="YWQ8t6BQs9RLZOX51MIL-7" value="g&lt;sub&gt;m&lt;/sub&gt; V&lt;sub&gt;gs&lt;/sub&gt;" style="text;html=1;align=center;verticalAlign=middle;whiteSpace=wrap;rounded=0;noLabel=0;fontSize=20;" vertex="1" parent="1">
          <mxGeometry x="410" y="360" width="70" height="30" as="geometry" />
        </mxCell>
        <mxCell id="YWQ8t6BQs9RLZOX51MIL-8" value="r&lt;sub&gt;0&lt;/sub&gt;" style="text;html=1;align=center;verticalAlign=middle;whiteSpace=wrap;rounded=0;fontSize=20;" vertex="1" parent="1">
          <mxGeometry x="520" y="360" width="60" height="30" as="geometry" />
        </mxCell>
        <mxCell id="YWQ8t6BQs9RLZOX51MIL-9" value="g&lt;sub&gt;mb&lt;/sub&gt; V&lt;sub&gt;bs&lt;/sub&gt;" style="text;html=1;align=center;verticalAlign=middle;whiteSpace=wrap;rounded=0;fontSize=20;" vertex="1" parent="1">
          <mxGeometry x="640" y="360" width="82.5" height="30" as="geometry" />
        </mxCell>
        <mxCell id="YWQ8t6BQs9RLZOX51MIL-10" value="" style="endArrow=none;html=1;strokeWidth=1;rounded=0;" edge="1" parent="1">
          <mxGeometry width="100" relative="1" as="geometry">
            <mxPoint x="340" y="430" as="sourcePoint" />
            <mxPoint x="640" y="430" as="targetPoint" />
          </mxGeometry>
        </mxCell>
        <mxCell id="YWQ8t6BQs9RLZOX51MIL-11" value="" style="endArrow=none;html=1;strokeWidth=1;rounded=0;exitX=0;exitY=0.5;exitDx=0;exitDy=0;exitPerimeter=0;" edge="1" parent="1" source="YWQ8t6BQs9RLZOX51MIL-3">
          <mxGeometry width="100" relative="1" as="geometry">
            <mxPoint x="519.8000000000001" y="290" as="sourcePoint" />
            <mxPoint x="520" y="250" as="targetPoint" />
          </mxGeometry>
        </mxCell>
        <mxCell id="YWQ8t6BQs9RLZOX51MIL-12" value="" style="endArrow=none;html=1;strokeWidth=1;rounded=0;exitX=0.5;exitY=0;exitDx=0;exitDy=0;exitPerimeter=0;" edge="1" parent="1" source="YWQ8t6BQs9RLZOX51MIL-1">
          <mxGeometry width="100" relative="1" as="geometry">
            <mxPoint x="390" y="330" as="sourcePoint" />
            <mxPoint x="400" y="250" as="targetPoint" />
          </mxGeometry>
        </mxCell>
        <mxCell id="YWQ8t6BQs9RLZOX51MIL-13" value="" style="endArrow=none;html=1;strokeWidth=1;rounded=0;entryX=0.5;entryY=0;entryDx=0;entryDy=0;entryPerimeter=0;" edge="1" parent="1" target="YWQ8t6BQs9RLZOX51MIL-2">
          <mxGeometry width="100" relative="1" as="geometry">
            <mxPoint x="640" y="250" as="sourcePoint" />
            <mxPoint x="590" y="350" as="targetPoint" />
          </mxGeometry>
        </mxCell>
        <mxCell id="YWQ8t6BQs9RLZOX51MIL-14" value="" style="endArrow=none;html=1;strokeWidth=1;rounded=0;" edge="1" parent="1">
          <mxGeometry width="100" relative="1" as="geometry">
            <mxPoint x="400" y="250" as="sourcePoint" />
            <mxPoint x="760" y="250" as="targetPoint" />
          </mxGeometry>
        </mxCell>
        <mxCell id="YWQ8t6BQs9RLZOX51MIL-15" value="" style="endArrow=none;html=1;strokeWidth=1;rounded=0;" edge="1" parent="1">
          <mxGeometry width="100" relative="1" as="geometry">
            <mxPoint x="160" y="250" as="sourcePoint" />
            <mxPoint x="280" y="250" as="targetPoint" />
          </mxGeometry>
        </mxCell>
        <mxCell id="YWQ8t6BQs9RLZOX51MIL-16" value="+" style="text;html=1;align=center;verticalAlign=middle;whiteSpace=wrap;rounded=0;fontSize=20;" vertex="1" parent="1">
          <mxGeometry x="250" y="250" width="60" height="30" as="geometry" />
        </mxCell>
        <mxCell id="YWQ8t6BQs9RLZOX51MIL-17" value="-" style="text;html=1;align=center;verticalAlign=middle;whiteSpace=wrap;rounded=0;fontSize=20;" vertex="1" parent="1">
          <mxGeometry x="250" y="400" width="60" height="30" as="geometry" />
        </mxCell>
        <mxCell id="YWQ8t6BQs9RLZOX51MIL-18" value="V&lt;sub&gt;gs&lt;/sub&gt;" style="text;html=1;align=center;verticalAlign=middle;whiteSpace=wrap;rounded=0;fontSize=20;" vertex="1" parent="1">
          <mxGeometry x="250" y="325" width="60" height="30" as="geometry" />
        </mxCell>
        <mxCell id="YWQ8t6BQs9RLZOX51MIL-19" value="" style="verticalLabelPosition=bottom;shadow=0;dashed=0;align=center;html=1;verticalAlign=top;strokeWidth=1;shape=ellipse;" vertex="1" parent="1">
          <mxGeometry x="155" y="245" width="10" height="10" as="geometry" />
        </mxCell>
        <mxCell id="YWQ8t6BQs9RLZOX51MIL-20" value="" style="verticalLabelPosition=bottom;shadow=0;dashed=0;align=center;html=1;verticalAlign=top;strokeWidth=1;shape=ellipse;" vertex="1" parent="1">
          <mxGeometry x="755" y="245" width="10" height="10" as="geometry" />
        </mxCell>
        <mxCell id="YWQ8t6BQs9RLZOX51MIL-21" value="" style="endArrow=none;html=1;strokeWidth=1;rounded=0;" edge="1" parent="1">
          <mxGeometry width="100" relative="1" as="geometry">
            <mxPoint x="280" y="430" as="sourcePoint" />
            <mxPoint x="340" y="430" as="targetPoint" />
          </mxGeometry>
        </mxCell>
        <mxCell id="YWQ8t6BQs9RLZOX51MIL-27" value="G" style="text;html=1;align=center;verticalAlign=middle;whiteSpace=wrap;rounded=0;fontSize=20;" vertex="1" parent="1">
          <mxGeometry x="165" y="250" width="60" height="30" as="geometry" />
        </mxCell>
        <mxCell id="YWQ8t6BQs9RLZOX51MIL-29" value="D" style="text;html=1;align=center;verticalAlign=middle;whiteSpace=wrap;rounded=0;fontSize=20;" vertex="1" parent="1">
          <mxGeometry x="695" y="250" width="60" height="30" as="geometry" />
        </mxCell>
        <mxCell id="YWQ8t6BQs9RLZOX51MIL-30" value="" style="verticalLabelPosition=bottom;shadow=0;dashed=0;align=center;html=1;verticalAlign=top;strokeWidth=1;shape=ellipse;" vertex="1" parent="1">
          <mxGeometry x="335" y="425" width="10" height="10" as="geometry" />
        </mxCell>
        <mxCell id="YWQ8t6BQs9RLZOX51MIL-31" value="S" style="text;html=1;align=center;verticalAlign=middle;whiteSpace=wrap;rounded=0;fontSize=20;" vertex="1" parent="1">
          <mxGeometry x="310" y="400" width="60" height="30" as="geometry" />
        </mxCell>
        <mxCell id="YWQ8t6BQs9RLZOX51MIL-32" value="" style="pointerEvents=1;verticalLabelPosition=bottom;shadow=0;dashed=0;align=center;html=1;verticalAlign=top;shape=mxgraph.electrical.resistors.resistor_2;rotation=90;" vertex="1" parent="1">
          <mxGeometry x="290" y="475" width="100" height="20" as="geometry" />
        </mxCell>
        <mxCell id="YWQ8t6BQs9RLZOX51MIL-36" value="" style="pointerEvents=1;verticalLabelPosition=bottom;shadow=0;dashed=0;align=center;html=1;verticalAlign=top;shape=mxgraph.electrical.signal_sources.signal_ground;" vertex="1" parent="1">
          <mxGeometry x="317.5" y="535" width="45" height="30" as="geometry" />
        </mxCell>
        <mxCell id="YWQ8t6BQs9RLZOX51MIL-37" value="" style="pointerEvents=1;verticalLabelPosition=bottom;shadow=0;dashed=0;align=center;html=1;verticalAlign=top;shape=mxgraph.electrical.signal_sources.signal_ground;" vertex="1" parent="1">
          <mxGeometry x="737.5" y="440" width="45" height="30" as="geometry" />
        </mxCell>
        <mxCell id="YWQ8t6BQs9RLZOX51MIL-38" value="" style="endArrow=none;html=1;strokeWidth=1;rounded=0;exitX=0.5;exitY=0;exitDx=0;exitDy=0;exitPerimeter=0;entryX=0.5;entryY=1;entryDx=0;entryDy=0;" edge="1" parent="1" source="YWQ8t6BQs9RLZOX51MIL-37" target="YWQ8t6BQs9RLZOX51MIL-20">
          <mxGeometry width="100" relative="1" as="geometry">
            <mxPoint x="660" y="380" as="sourcePoint" />
            <mxPoint x="740" y="320" as="targetPoint" />
          </mxGeometry>
        </mxCell>
        <mxCell id="YWQ8t6BQs9RLZOX51MIL-39" value="" style="pointerEvents=1;verticalLabelPosition=bottom;shadow=0;dashed=0;align=center;html=1;verticalAlign=top;shape=mxgraph.electrical.signal_sources.source;aspect=fixed;points=[[0.5,0,0],[1,0.5,0],[0.5,1,0],[0,0.5,0]];elSignalType=dc3;" vertex="1" parent="1">
          <mxGeometry x="130" y="310" width="60" height="60" as="geometry" />
        </mxCell>
        <mxCell id="YWQ8t6BQs9RLZOX51MIL-40" value="" style="pointerEvents=1;verticalLabelPosition=bottom;shadow=0;dashed=0;align=center;html=1;verticalAlign=top;shape=mxgraph.electrical.signal_sources.signal_ground;" vertex="1" parent="1">
          <mxGeometry x="137.5" y="430" width="45" height="30" as="geometry" />
        </mxCell>
        <mxCell id="YWQ8t6BQs9RLZOX51MIL-41" value="" style="endArrow=none;html=1;strokeWidth=1;rounded=0;entryX=0.5;entryY=1;entryDx=0;entryDy=0;entryPerimeter=0;exitX=0.5;exitY=0;exitDx=0;exitDy=0;exitPerimeter=0;" edge="1" parent="1" source="YWQ8t6BQs9RLZOX51MIL-40" target="YWQ8t6BQs9RLZOX51MIL-39">
          <mxGeometry width="100" relative="1" as="geometry">
            <mxPoint x="320" y="380" as="sourcePoint" />
            <mxPoint x="420" y="380" as="targetPoint" />
          </mxGeometry>
        </mxCell>
        <mxCell id="YWQ8t6BQs9RLZOX51MIL-42" value="" style="endArrow=none;html=1;strokeWidth=1;rounded=0;entryX=0.5;entryY=1;entryDx=0;entryDy=0;exitX=0.5;exitY=0;exitDx=0;exitDy=0;exitPerimeter=0;" edge="1" parent="1" source="YWQ8t6BQs9RLZOX51MIL-39" target="YWQ8t6BQs9RLZOX51MIL-19">
          <mxGeometry width="100" relative="1" as="geometry">
            <mxPoint x="210" y="330" as="sourcePoint" />
            <mxPoint x="310" y="330" as="targetPoint" />
          </mxGeometry>
        </mxCell>
        <mxCell id="YWQ8t6BQs9RLZOX51MIL-43" value="" style="endArrow=classicThin;html=1;strokeWidth=1;endSize=20;rounded=0;exitX=0;exitY=0.5;exitDx=0;exitDy=0;" edge="1" parent="1" source="YWQ8t6BQs9RLZOX51MIL-20">
          <mxGeometry width="100" relative="1" as="geometry">
            <mxPoint x="580" y="300" as="sourcePoint" />
            <mxPoint x="680" y="250" as="targetPoint" />
          </mxGeometry>
        </mxCell>
        <mxCell id="YWQ8t6BQs9RLZOX51MIL-44" value="&lt;font style=&quot;font-size: 20px;&quot;&gt;I&lt;sub&gt;x&lt;/sub&gt;&lt;/font&gt;" style="text;html=1;align=center;verticalAlign=middle;whiteSpace=wrap;rounded=0;" vertex="1" parent="1">
          <mxGeometry x="670" y="260" width="60" height="30" as="geometry" />
        </mxCell>
        <mxCell id="YWQ8t6BQs9RLZOX51MIL-45" value="V&lt;sub&gt;x&lt;/sub&gt;" style="text;html=1;align=center;verticalAlign=middle;whiteSpace=wrap;rounded=0;fontSize=20;" vertex="1" parent="1">
          <mxGeometry x="182.5" y="325" width="60" height="30" as="geometry" />
        </mxCell>
        <mxCell id="YWQ8t6BQs9RLZOX51MIL-46" value="R" style="text;html=1;align=center;verticalAlign=middle;whiteSpace=wrap;rounded=0;fontSize=20;" vertex="1" parent="1">
          <mxGeometry x="350" y="470" width="60" height="30" as="geometry" />
        </mxCell>
      </root>
    </mxGraphModel>
  </diagram>
</mxfile>
